<svg width="174" height="50" viewBox="0 0 174 50" fill="none" xmlns="http://www.w3.org/2000/svg">
<path d="M164.1 19.9298V4.59979H155.85V16.8633H154.199V4.59979H145.949V15.3313H149.25V7.66632H150.9V16.8646H144.301V0H141V19.9298H164.1ZM159.15 12.2648V7.66632H160.801V16.8646H159.15V12.2648ZM170.701 4.59849V16.8633H169.051V4.59849H165.75V24.5283H169.051V19.9298H174V4.59849H170.701Z" fill="#004E28"/>
<path d="M171 21.6981H174V25.4717H171V21.6981Z" fill="#004E28"/>
<path d="M145.749 47.1699H149V50.0001H145.749V47.1699ZM136 47.1699H144.125V50.0001H136V47.1699Z" fill="#3B9499"/>
<path d="M151 21.6981H154.251V25.4717H151V21.6981ZM155.875 21.6981H164V25.4717H155.875V21.6981Z" fill="#004E28"/>
<path d="M141 26.415H164V29.2452H141V26.415Z" fill="#3B9499"/>
<path d="M131 21.6981H149V25.4717H131V21.6981Z" fill="#004E28"/>
<path d="M170.714 26.415H174V45.2835H170.714V26.415ZM165.785 42.1383H159.214V34.2767H160.857V40.8276H164.142V31.1315H155.928V42.1383H154.285V31.1315H151V49.9999H154.285V45.2835H169.071V26.415H165.785V42.1383Z" fill="#3B9499"/>
<path d="M139 20.7547V4.71692H135.801V17.5468H134.201V9.52865H131V20.7547H139Z" fill="#004E28"/>
<path d="M131 26.415H139V29.2452H131V26.415Z" fill="#3B9499"/>
<path d="M145.727 42.1393H144.092V31.1333H140.818V42.1393H139.182V31.1333H131V45.2829H149V31.132H145.727V42.1393ZM134.273 42.1393V34.2782H135.91V42.1393H134.273Z" fill="#3B9499"/>
<path d="M6.62808 37.8487H3.14943L1.89204 40.7366H3.1177V41.3201H0V40.7366H1.07493L5.14856 31.7534L5.64834 31.6828L9.11113 40.7366H10.1504V41.3201H6.62808V40.7366H7.67921L6.62808 37.8487ZM3.38345 37.2801H6.43768L5.02957 33.3962L3.38345 37.2801ZM14.2438 41.3164H11.0785V40.7329H12.1376V35.091H11.0785V34.7416L13.0023 34.1878H13.2839V35.8046C13.8154 35.0166 14.7 34.1432 15.7511 34.1432C16.3897 34.1432 16.6991 34.3922 16.6991 34.8754C16.6991 35.195 16.5682 35.4849 16.3144 35.7488H15.4298C15.3227 35.444 15.1204 35.2805 14.8229 35.2805C13.9067 35.2805 13.3157 36.3732 13.2839 37.124V40.7291H14.2438V41.3164ZM21.8199 39.9486C20.9949 40.9298 20.2055 41.4019 19.4281 41.4019C18.3294 41.4019 17.5638 40.7366 17.5638 39.6922C17.5638 38.3802 18.9799 37.3767 21.8199 36.6817V36.113C21.8199 35.2842 21.4391 34.8791 20.6855 34.8791C20.2373 34.8791 19.7375 35.0204 19.1623 35.3251L18.6229 36.4884H18.1231V35.3251C18.8212 34.671 20.0151 34.2956 20.9949 34.2956C22.2959 34.2956 22.9186 34.9349 22.9186 36.1391V39.774C22.9186 40.3277 23.0932 40.6028 23.4184 40.6028C23.708 40.6028 23.9856 40.495 24.2355 40.3538L24.4259 40.6437C23.819 41.1491 23.228 41.3944 22.637 41.3944C22.0936 41.3944 21.8199 40.9893 21.8199 40.1605V39.9486ZM21.8199 39.4729V37.1017C20.6061 37.5068 18.849 38.1163 18.849 39.5584C18.849 40.1977 19.3051 40.6102 19.9834 40.6102C20.6101 40.6065 21.213 40.2237 21.8199 39.4729ZM26.4131 31.4598H25.3541V31.1104L27.4365 30.5566H27.5595V35.091C28.325 34.4814 29.0985 34.1767 29.9235 34.1767C31.9068 34.1767 32.9738 35.8083 32.9738 37.5068C32.9738 39.7368 31.173 41.4613 28.7851 41.4613C28.0434 41.4613 27.2461 41.2346 26.4131 40.7663V31.4598ZM27.5555 35.5481V40.2088C28.0117 40.7217 28.6146 40.9819 29.3722 40.9819C31.1214 40.9819 31.7442 39.3837 31.7442 37.9862C31.7442 36.5888 31.0183 34.9646 29.2849 34.9646C28.5947 34.9646 28.0275 35.1579 27.5555 35.5481ZM37.0673 41.3164H33.902V40.7329H34.961V34.9497H33.902V34.6004L35.8257 34.0466H36.1074V40.7329H37.0673V41.3164ZM34.6358 31.4449C34.6358 31.0138 35.0086 30.6644 35.4687 30.6644C35.9527 30.6644 36.3097 30.9989 36.3097 31.4449C36.3097 31.8575 35.909 32.2329 35.4687 32.2329C35.0047 32.2329 34.6358 31.8872 34.6358 31.4449ZM44.0047 36.6185C43.6477 35.3994 43.029 34.7044 41.6169 34.7044C39.8756 34.7044 39.237 36.3026 39.237 37.7001C39.237 39.2388 40.0184 40.7217 41.8588 40.7217C42.549 40.7217 43.2313 40.5173 43.9254 40.1122L44.1753 40.4727C43.1599 41.1528 42.1682 41.5096 41.2044 41.5096C39.1457 41.5096 37.9915 40.0118 37.9915 38.1795C37.9915 35.9384 39.7923 34.225 42.1801 34.225C42.8703 34.225 43.8461 34.4814 44.3974 34.8642V36.6185H44.0047ZM51.5848 36.6557V40.7366H52.8858V41.3201H49.1295V40.7366H50.371V32.5413H49.1295V31.9467H52.8858V32.5413H51.5848V36.0908H57.1657V32.5413H55.9242V31.9467H59.6805V32.5413H58.3794V40.7366H59.6805V41.3201H55.9242V40.7366H57.1657V36.6557H51.5848ZM64.8727 39.9486C64.0476 40.9298 63.2583 41.4019 62.4808 41.4019C61.3821 41.4019 60.6166 40.7366 60.6166 39.6922C60.6166 38.3802 62.0326 37.3804 64.8727 36.6817V36.113C64.8727 35.2842 64.4919 34.8791 63.7382 34.8791C63.29 34.8791 62.7902 35.0204 62.2151 35.3251L61.6756 36.4884H61.1759V35.3251C61.874 34.671 63.0679 34.2956 64.0476 34.2956C65.3487 34.2956 65.9714 34.9349 65.9714 36.1391V39.774C65.9714 40.3277 66.1459 40.6028 66.4712 40.6028C66.7607 40.6028 67.0384 40.495 67.2883 40.3538L67.4787 40.6437C66.8718 41.1491 66.2808 41.3944 65.6898 41.3944C65.1424 41.3944 64.8727 40.9893 64.8727 40.1605V39.9486ZM64.8727 39.4729V37.1017C63.6589 37.5068 61.9017 38.1163 61.9017 39.5584C61.9017 40.1977 62.3579 40.6102 63.0362 40.6102C63.6629 40.6065 64.2658 40.2237 64.8727 39.4729ZM74.4122 36.6185C74.0552 35.3994 73.4364 34.7044 72.0283 34.7044C70.287 34.7044 69.6484 36.3026 69.6484 37.7001C69.6484 39.2388 70.4298 40.7217 72.2703 40.7217C72.9604 40.7217 73.6427 40.5173 74.3368 40.1122L74.5867 40.4727C73.5713 41.1528 72.5796 41.5096 71.6158 41.5096C69.5571 41.5096 68.4029 40.0118 68.4029 38.1795C68.4029 35.9384 70.2037 34.225 72.5915 34.225C73.2817 34.225 74.2575 34.4814 74.8088 34.8642V36.6185H74.4122ZM77.9503 37.99V40.7366H78.9142V41.3201H75.7489V40.7366H76.808V31.4598H75.7489V31.1104L77.6727 30.5566H77.9543V37.2764L80.7031 34.92H79.6639V34.3105H82.6546V34.92H81.548L79.1324 36.9419L82.4484 40.7329H83.1901V41.3164H80.1994V40.7329H80.9927L78.2875 37.6815L77.9503 37.99ZM88.3863 39.9486C87.5612 40.9298 86.7719 41.4019 85.9945 41.4019C84.8957 41.4019 84.1302 40.7366 84.1302 39.6922C84.1302 38.3802 85.5462 37.3767 88.3863 36.6817V36.113C88.3863 35.2842 88.0055 34.8791 87.2519 34.8791C86.8036 34.8791 86.3039 35.0204 85.7287 35.3251L85.1932 36.4884H84.6934V35.3251C85.3915 34.671 86.5855 34.2956 87.5652 34.2956C88.8662 34.2956 89.489 34.9349 89.489 36.1391V39.774C89.489 40.3277 89.6635 40.6028 89.9888 40.6028C90.2783 40.6028 90.556 40.495 90.8059 40.3538L90.9963 40.6437C90.3894 41.1491 89.7984 41.3944 89.2074 41.3944C88.66 41.3944 88.3902 40.9893 88.3902 40.1605V39.9486H88.3863ZM88.3863 39.4729V37.1017C87.1725 37.5068 85.4153 38.1163 85.4153 39.5584C85.4153 40.1977 85.8715 40.6102 86.5498 40.6102C87.1725 40.6065 87.7794 40.2237 88.3863 39.4729ZM92.9478 39.2685V34.9683H91.9165L91.9324 34.3142C93.1739 34.3142 93.6737 33.556 93.6737 32.5116H94.0743V34.3142H96.4661V34.9683H94.0743V38.9786C94.0743 39.8223 94.233 40.547 95.2722 40.547C95.8473 40.547 96.4978 40.2274 96.9143 39.8817L97.1959 40.2162C96.5732 40.77 95.7482 41.4242 94.8557 41.4242C93.4714 41.4167 92.9478 40.4318 92.9478 39.2685ZM103.697 40.7366V36.3806C103.697 35.5221 103.324 35.0947 102.563 35.0947C101.988 35.0947 101.246 35.3586 100.33 35.8826V40.7366H101.289V41.3201H98.1241V40.7366H99.1832V31.4598H98.1241V31.1104L100.048 30.5566H100.33V35.3697C101.496 34.6041 102.471 34.2138 103.289 34.2138C104.673 34.2138 104.855 35.2842 104.855 36.3769V40.7329H105.962V41.3164H102.797V40.7329H103.697V40.7366ZM110.337 34.1655C112.511 34.1655 113.8 35.8677 113.8 37.7558C113.8 39.6141 112.435 41.4799 110.337 41.4799C108.163 41.4799 106.89 39.7777 106.89 37.9045C106.89 36.0573 108.247 34.1655 110.337 34.1655ZM112.527 38.1312C112.527 36.7672 111.983 34.7453 110.186 34.7453C108.663 34.7453 108.148 36.336 108.148 37.5068C108.148 38.8336 108.754 40.915 110.496 40.915C111.995 40.915 112.527 39.2945 112.527 38.1312ZM120.301 40.7366V36.3806C120.301 35.5221 119.928 35.0947 119.167 35.0947C118.591 35.0947 117.85 35.3586 116.933 35.8826V40.7366H117.897V41.3201H114.732V40.7366H115.791V35.0947H114.732V34.7453L116.656 34.1915H116.937V35.3697C118.104 34.6041 119.079 34.2138 119.9 34.2138C121.285 34.2138 121.467 35.2842 121.467 36.3769V40.7329H122.574V41.3164H119.409V40.7329H120.301V40.7366Z" fill="#004E28"/>
<path d="M7.60428 19.2541C7.60428 20.2576 6.79114 20.9266 5.17279 21.2611C4.58178 21.4172 3.68931 21.5026 2.50728 21.5026C1.50375 21.5026 1 21.2611 1 20.7928C1.25782 19.5997 1.68224 18.7114 2.28516 18.1168C2.72148 17.6039 4.02646 16.9349 6.21203 16.1098C6.52538 15.9314 6.77131 15.7232 6.95773 15.4817L6.8903 14.6454L7.40199 13.4226H7.64791C7.78277 15.3999 7.96127 16.8085 8.17149 17.6559C8.63954 18.9642 9.23056 19.819 9.94453 20.2278C10.4919 20.5846 11.0948 20.763 11.7731 20.763H11.9754L12.2094 21.0046V22.0193L11.9754 22.2385H11.5073C9.59945 22.2311 8.30636 21.2388 7.60428 19.2541ZM3.0388 11.6089L1.17453 10.4902L2.14633 9.14103L4.0106 10.2598L3.0388 11.6089ZM2.90394 18.7523C2.11063 19.2243 1.71001 19.5588 1.71001 19.7558C1.94404 19.9528 2.45572 20.0569 3.24902 20.0569C5.0776 20.0569 6.50555 19.7112 7.53288 19.0236C7.19969 17.6113 7.02913 16.6301 7.02913 16.0763C6.79511 16.723 6.33895 17.2248 5.66861 17.5816C4.22083 18.1353 3.29662 18.533 2.90394 18.7523ZM6.43018 11.5977L4.55401 10.479L5.52582 9.12988L7.40199 10.2486L6.43018 11.5977Z" fill="#004E28"/>
<path d="M16.4734 21.5321C15.7912 21.0713 15.3469 20.5918 15.1248 20.0901C14.9899 20.4543 14.7123 20.8631 14.2878 21.3129C13.8515 21.7626 13.1177 22.0674 12.0666 22.2346H11.3209L11.0869 22.0153V21.0007L11.3209 20.7591H12.0666C13.3954 20.7479 14.264 20.4023 14.6567 19.7259C15.0931 18.9639 15.4381 18.5848 15.696 18.5848C15.8189 18.6146 16.0847 18.9602 16.4774 19.6181C17.1794 20.3391 17.941 20.7256 18.7304 20.7591H19.1548L19.3888 21.0007V22.0153L19.1548 22.2346H18.4725C17.8101 22.2309 17.1517 22.0004 16.4734 21.5321ZM14.2283 26.4456L12.3641 25.3269L13.3359 23.9777L15.2001 25.0964L14.2283 26.4456ZM17.6237 26.4344L15.7475 25.3157L16.7193 23.9666L18.5955 25.0853L17.6237 26.4344Z" fill="#004E28"/>
<path d="M18.3695 22.0119V20.9972L18.6035 20.7556H23.5339C23.4348 20.0643 23.2999 19.5217 23.1214 19.1129C22.9429 18.7152 22.574 18.1205 22.0266 17.314V17.2099L22.7724 15.8719H22.8834C23.7878 16.9684 24.2995 18.1837 24.4026 19.5105C24.3034 20.8708 24.0218 21.7777 23.5657 22.2274H18.6035L18.3695 22.0119ZM22.6216 26.4458L20.7574 25.3271L21.7292 23.978L23.5934 25.0967L22.6216 26.4458ZM30.6777 19.0534L31.2131 17.682L31.4789 17.7674C31.4789 18.4253 31.8478 19.0831 32.5816 19.7447C33.3273 20.4248 34.2118 20.7594 35.2273 20.7594H35.6715L35.9055 21.0009V22.0156L35.6715 22.2349H35.2273C34.5926 22.194 34.0651 22.1308 33.6407 22.0342C33.5177 23.0711 33.1052 24.1452 32.3912 25.2454C31.6653 26.1559 30.8165 26.7283 29.8685 26.9922C28.028 26.9922 26.1875 26.7395 24.3431 26.2377V25.8512H25.8147C28.0122 25.8512 29.6186 25.5167 30.6261 24.8365C31.82 23.9668 32.5578 22.9447 32.8355 21.7851C31.4035 21.0492 30.6777 20.1424 30.6777 19.0534Z" fill="#004E28"/>
<path d="M42.014 20.5585C40.6535 21.4877 38.7099 22.0526 36.1792 22.231H35.2312L34.9972 22.0117V20.9971L35.2312 20.7555H36.2149C38.2775 20.6626 39.9316 20.3169 41.1929 19.7223C40.9034 19.0644 40.3322 18.5627 39.4873 18.217C39.051 18.0498 38.4401 17.9643 37.6587 17.9643L37.504 17.7748L38.1942 16.2695C38.9994 16.0279 39.8919 15.9053 40.8835 15.9053C42.6685 15.9053 43.672 16.5334 43.906 17.7971C43.906 18.3917 43.6482 19.0198 43.1246 19.6888C43.8624 20.3281 44.7985 20.6812 45.925 20.7555H46.8056L47.0277 20.9971V22.0117L46.8056 22.231H45.925C43.9655 22.231 42.6724 21.6772 42.014 20.5585Z" fill="#004E28"/>
<path d="M50.3159 22.2311H46.4089L46.1748 22.0118V20.9972L46.4089 20.7556H50.0343C50.1136 20.5474 50.1572 20.2538 50.1691 19.8859C50.1691 18.9121 49.7685 16.2696 48.9752 11.9508C48.2176 11.4602 47.8368 10.873 47.8368 10.204C47.8368 9.58702 48.1065 9.01093 48.642 8.4906L48.7332 8.53149C48.7332 9.48295 49.8716 10.5496 52.1603 11.7092V11.8133L51.4146 13.2888H51.3472L50.3437 12.8168C50.5579 13.7385 50.7562 14.7718 50.9466 15.9202C51.1251 17.0724 51.2163 18.0945 51.2163 18.9827C51.2084 19.9416 50.9069 21.0195 50.3159 22.2311ZM56.7655 19.1165C56.6663 20.1944 56.4521 21.2276 56.1308 22.2311H55.8849C55.8849 20.4657 55.4724 16.7119 54.6592 10.9696L55.5517 8.92916H55.6985C56.4085 13.7943 56.7655 17.1913 56.7655 19.1165ZM73.5241 23.1008C71.9851 24.1563 70.1763 24.6804 68.1018 24.6804C64.8096 24.6804 63.1714 23.5096 63.1714 21.1681C63.1714 20.1014 63.5165 18.7857 64.2107 17.2173L64.6549 17.418C64.3535 18.2654 64.175 19.0905 64.0956 19.8859C64.0956 21.9858 65.4363 23.045 68.1018 23.045C70.0335 23.045 71.8383 22.6288 73.5241 21.7814C73.4566 20.3393 73.1552 18.7597 72.6197 17.0538L73.5915 15.5151H73.7383C74.2063 16.9794 74.4761 18.1725 74.5435 19.0905V20.566C74.4523 21.5101 74.1151 22.3575 73.5241 23.1008ZM68.8912 13.8872L67.0269 12.7685L67.9987 11.4193L69.863 12.538L68.8912 13.8872ZM78.3196 8.88086C78.7559 15.2289 79.1804 18.7932 79.5929 19.5774C80.0054 20.3616 80.8423 20.7481 82.1156 20.7593L82.1949 20.9154V22.0861L82.1077 22.2311H81.9966C81.0605 22.2199 80.2989 22.0118 79.7079 21.6141C79.0931 21.2499 78.6488 20.6627 78.3672 19.8561C78.1887 19.2095 77.8079 16.1135 77.2288 10.5719L78.0975 8.87714H78.3196V8.88086Z" fill="#004E28"/>
<path d="M92.7737 21.5323C92.2144 21.1049 91.913 20.4136 91.8574 19.451L88.0416 21.3316C86.9151 21.759 85.4078 22.0638 83.5436 22.231H81.4889L81.2549 22.0118V20.9971L81.4889 20.7555H82.0006C85.5586 20.7146 88.2043 20.1497 89.9337 19.0496C90.5485 18.7151 91.0284 18.4846 91.3616 18.3471V18.3174C88.827 17.6893 87.1452 17.3771 86.2845 17.3771C84.5114 17.3771 83.3492 18.1093 82.7899 19.5848C82.5123 20.0122 82.31 20.224 82.1751 20.224L82.1434 20.1609C82.2783 19.5327 82.7463 18.6222 83.5396 17.444C84.3765 16.3253 85.5824 15.7715 87.1452 15.7715C88.2281 15.7715 90.2708 16.158 93.2497 16.9422C94.1104 17.0983 94.8244 17.1838 95.3916 17.1838H96.0064L96.0739 17.2135C95.8636 18.217 95.6732 18.7188 95.5066 18.7188C95.2171 18.7597 94.995 18.782 94.8244 18.782H94.2889C93.4202 18.886 92.7935 19.0756 92.4127 19.3581C92.4127 19.5996 92.6468 19.8933 93.1267 20.2166C93.6067 20.54 94.2651 20.7295 95.114 20.7592H97.2995L97.5335 21.0008V22.0155L97.2995 22.2348H95.114C94.1104 22.1902 93.329 21.9597 92.7737 21.5323ZM88.0297 26.4457L86.1655 25.327L87.1373 23.9779L89.0015 25.0966L88.0297 26.4457Z" fill="#004E28"/>
<path d="M100.358 19.4734C101.643 16.5781 103.091 15.1249 104.721 15.1249C105.982 15.1249 106.807 16.1693 107.188 18.2729C107.287 18.8899 107.335 19.5068 107.335 20.1126C107.144 21.209 106.756 21.7554 106.185 21.7554C104.701 21.7554 102.984 21.0753 101.008 19.7261C100.263 20.8746 99.5922 21.5881 98.9774 21.8483C98.541 22.0676 98.073 22.2051 97.5494 22.2348H96.9147L96.6807 22.0156V21.0009L96.9147 20.7593H97.8747C98.9972 20.7593 99.8222 20.3282 100.358 19.4734ZM106.327 20.0792C105.927 17.8195 105.165 16.6896 104.039 16.6896C103.293 16.6896 102.519 17.1282 101.718 17.9979C102.69 18.8861 104.221 19.5774 106.327 20.0792ZM111.785 19.0534L112.321 17.6819L112.59 17.7674C112.59 18.4253 112.959 19.0831 113.693 19.7447C114.439 20.4248 115.323 20.7593 116.339 20.7593H116.783L117.017 21.0009V22.0156L116.783 22.2348H116.339C115.704 22.194 115.177 22.1308 114.752 22.0341C114.629 23.0711 114.217 24.1452 113.503 25.2453C112.777 26.1559 111.928 26.7283 110.98 26.9922C109.14 26.9922 107.299 26.7394 105.455 26.2377V25.8511H106.926C109.124 25.8511 110.73 25.5167 111.738 24.8365C112.932 23.9668 113.669 22.9447 113.947 21.7851C112.511 21.0492 111.785 20.1424 111.785 19.0534Z" fill="#004E28"/>
<path d="M116.101 22.0119V20.9972L116.335 20.7556H121.265C121.166 20.0643 121.031 19.5217 120.853 19.1129C120.674 18.7152 120.305 18.1205 119.758 17.314V17.2099L120.504 15.8719H120.615C121.519 16.9684 122.031 18.1837 122.134 19.5105C122.035 20.8708 121.753 21.7777 121.297 22.2274H116.331L116.101 22.0119ZM120.353 26.4458L118.489 25.3271L119.461 23.978L121.325 25.0967L120.353 26.4458Z" fill="#004E28"/>
</svg>
