<svg width="16" height="13" viewBox="0 0 16 13" fill="none" xmlns="http://www.w3.org/2000/svg">
    <path
        d="M9.01804 1.59137C9.01804 1.06538 8.34352 0.802385 7.94863 1.17398L5.59634 3.39079C5.50319 3.47846 5.39263 3.54798 5.27096 3.59537C5.14929 3.64276 5.0189 3.66711 4.88725 3.66701H3.00451C2.47288 3.66701 1.96303 3.86599 1.58711 4.22019C1.21119 4.57438 1 5.05477 1 5.55567V7.44433C1 7.94523 1.21119 8.42562 1.58711 8.77981C1.96303 9.13401 2.47288 9.33299 3.00451 9.33299H4.88725C5.0189 9.33289 5.14929 9.35724 5.27096 9.40463C5.39263 9.45202 5.50319 9.52154 5.59634 9.60921L7.94863 11.826C8.34352 12.1976 9.01804 11.9346 9.01804 11.4086V1.59137ZM6.30494 4.05843L8.01579 2.44646V10.554L6.30494 8.94204C6.11878 8.76659 5.89777 8.62742 5.65452 8.53247C5.41127 8.43752 5.15055 8.38865 4.88725 8.38866H3.00451C2.7387 8.38866 2.48377 8.28917 2.29581 8.11207C2.10785 7.93498 2.00226 7.69478 2.00226 7.44433V5.55567C2.00226 5.30522 2.10785 5.06502 2.29581 4.88793C2.48377 4.71083 2.7387 4.61134 3.00451 4.61134H4.88725C5.15051 4.61141 5.41121 4.56262 5.65446 4.46775C5.89771 4.37288 6.11874 4.2338 6.30494 4.05843ZM11.4355 3.39976C11.3985 3.34798 11.351 3.30362 11.2957 3.26925C11.2405 3.23487 11.1785 3.21116 11.1134 3.19949C11.0484 3.18782 10.9815 3.18841 10.9167 3.20124C10.8518 3.21407 10.7904 3.23888 10.7358 3.27424C10.6812 3.30959 10.6346 3.35479 10.5987 3.40722C10.5628 3.45965 10.5382 3.51827 10.5265 3.57969C10.5148 3.64111 10.5161 3.70411 10.5303 3.76505C10.5446 3.82599 10.5715 3.88366 10.6096 3.93473C11.2536 4.81768 11.5552 5.67041 11.5552 6.5C11.5552 7.33007 11.2536 8.18327 10.6096 9.06574C10.5715 9.11681 10.5446 9.17448 10.5303 9.23542C10.5161 9.29636 10.5148 9.35936 10.5265 9.42078C10.5382 9.4822 10.5628 9.54082 10.5987 9.59325C10.6346 9.64568 10.6812 9.69088 10.7358 9.72623C10.7904 9.76159 10.8518 9.7864 10.9167 9.79923C10.9815 9.81206 11.0484 9.81266 11.1134 9.80098C11.1785 9.78931 11.2405 9.7656 11.2957 9.73122C11.351 9.69685 11.3985 9.65249 11.4355 9.60071C12.1696 8.595 12.557 7.55907 12.557 6.5C12.557 5.44141 12.1696 4.40595 11.4355 3.39976ZM12.8717 1.4365C12.7754 1.3501 12.6466 1.30327 12.5137 1.30633C12.3808 1.30938 12.2546 1.36207 12.1629 1.45279C12.0712 1.54352 12.0215 1.66485 12.0247 1.7901C12.0279 1.91536 12.0839 2.03426 12.1802 2.12067C13.3763 3.1939 13.9982 4.82995 13.9982 6.5C13.9982 8.17052 13.3763 9.80657 12.1802 10.8798C12.1325 10.9226 12.0942 10.9738 12.0675 11.0305C12.0409 11.0872 12.0263 11.1483 12.0247 11.2104C12.0231 11.2724 12.0345 11.3341 12.0582 11.392C12.0819 11.4498 12.1175 11.5028 12.1629 11.5477C12.2083 11.5926 12.2626 11.6287 12.3228 11.6538C12.383 11.6789 12.4479 11.6926 12.5137 11.6941C12.5795 11.6957 12.645 11.6849 12.7065 11.6626C12.7679 11.6403 12.824 11.6068 12.8717 11.564C14.3064 10.2764 15 8.37119 15 6.5C15 4.62928 14.3064 2.7241 12.8717 1.4365Z"
        fill="#009C89" fill-opacity="0.5" />
    <path
        d="M7.88005 1.1012L7.8801 1.10115C8.10899 0.885767 8.4183 0.85559 8.66777 0.95292C8.91752 1.05036 9.11804 1.2805 9.11804 1.59137V11.4086C9.11804 11.7195 8.91752 11.9496 8.66777 12.0471C8.4183 12.1444 8.10899 12.1142 7.8801 11.8988L7.88005 11.8988L5.52781 9.68203C5.4442 9.60334 5.34463 9.54065 5.23466 9.49781C5.12469 9.45497 5.00664 9.4329 4.88732 9.43299H4.88725H3.00451C2.44822 9.43299 1.9136 9.22483 1.51853 8.8526C1.12326 8.48017 0.9 7.97374 0.9 7.44433V5.55567C0.9 5.02626 1.12326 4.51983 1.51853 4.1474C1.9136 3.77517 2.44822 3.56701 3.00451 3.56701H4.88725H4.88732C5.00664 3.5671 5.12469 3.54503 5.23466 3.50219C5.34461 3.45936 5.44416 3.39669 5.52776 3.31802L7.88005 1.1012ZM7.88005 1.1012L5.52781 3.31797L7.88005 1.1012ZM10.6096 3.93473L10.5288 3.99365C11.1633 4.86365 11.4552 5.69621 11.4552 6.5C11.4552 7.30418 11.1634 8.1371 10.5291 9.00647C10.4831 9.06823 10.4504 9.13827 10.433 9.21262C10.4155 9.28719 10.4139 9.36435 10.4283 9.43955C10.4426 9.51473 10.4726 9.58617 10.5162 9.64978C10.5598 9.71337 10.616 9.76779 10.6814 9.81016C10.7468 9.85253 10.8202 9.88207 10.8972 9.89733C10.9743 9.91258 11.0537 9.91329 11.1311 9.89941C11.2084 9.88554 11.2823 9.85731 11.3485 9.81614C11.4145 9.77515 11.4715 9.72206 11.5162 9.65967C12.2599 8.64095 12.657 7.58484 12.657 6.5C12.657 5.41577 12.26 4.36028 11.5166 3.34125C11.4718 3.27866 11.4146 3.22542 11.3485 3.18433C11.2823 3.14316 11.2084 3.11493 11.1311 3.10106C11.0537 3.08719 10.9743 3.08789 10.8972 3.10315C10.8202 3.1184 10.7468 3.14794 10.6814 3.19031C10.616 3.23268 10.5598 3.28711 10.5162 3.35069C10.4726 3.4143 10.4426 3.48574 10.4283 3.56093C10.4139 3.63612 10.4155 3.71328 10.433 3.78785C10.4504 3.86241 10.4833 3.93262 10.5295 3.9945L10.6096 3.93473ZM10.6096 3.93473C11.2536 4.81768 11.5552 5.67041 11.5552 6.5C11.5552 7.33007 11.2536 8.18327 10.6096 9.06574C10.5715 9.11681 10.5446 9.17448 10.5303 9.23542C10.5161 9.29636 10.5148 9.35936 10.5265 9.42078C10.5382 9.4822 10.5628 9.54082 10.5987 9.59325C10.6346 9.64568 10.6812 9.69088 10.7358 9.72623C10.7904 9.76159 10.8518 9.7864 10.9167 9.79923C10.9815 9.81206 11.0484 9.81266 11.1134 9.80098C11.1785 9.78931 11.2405 9.7656 11.2957 9.73122C11.351 9.69685 11.3985 9.65249 11.4355 9.60071L11.2957 3.26925C11.2405 3.23487 11.1785 3.21116 11.1134 3.19949C11.0484 3.18782 10.9815 3.18841 10.9167 3.20124C10.8518 3.21407 10.7904 3.23888 10.7358 3.27424C10.6812 3.30959 10.6346 3.35479 10.5987 3.40722C10.5628 3.45965 10.5382 3.51827 10.5265 3.57969C10.5148 3.64111 10.5161 3.70411 10.5303 3.76505C10.5446 3.82599 10.5715 3.88366 10.6096 3.93473ZM6.3735 4.13123L6.37351 4.13122L7.91579 2.67808V10.3224L6.37352 8.86927C6.37352 8.86926 6.37352 8.86926 6.37351 8.86926C6.17783 8.68483 5.94582 8.53883 5.69088 8.43931C5.43594 8.3398 5.16288 8.28865 4.88724 8.28866H3.00451C2.76336 8.28866 2.5332 8.19834 2.36438 8.03929C2.19578 7.88042 2.10226 7.66627 2.10226 7.44433V5.55567C2.10226 5.33373 2.19578 5.11958 2.36438 4.96071C2.5332 4.80166 2.76336 4.71134 3.00451 4.71134H4.88722C4.88723 4.71134 4.88724 4.71134 4.88725 4.71134C5.16284 4.71141 5.43587 4.66034 5.6908 4.56092C5.94574 4.46149 6.17777 4.31557 6.3735 4.13123ZM12.1134 2.1951L12.1134 2.1951C13.2848 3.24614 13.8982 4.85314 13.8982 6.5C13.8982 8.14734 13.2848 9.75433 12.1134 10.8054L12.1134 10.8054C12.056 10.8569 12.0095 10.9189 11.977 10.988C11.9445 11.0571 11.9267 11.1318 11.9247 11.2078C11.9228 11.2838 11.9367 11.3593 11.9656 11.4299C11.9946 11.5005 12.0378 11.5646 12.0925 11.6188C12.1473 11.6729 12.2125 11.7161 12.2843 11.7461C12.3561 11.776 12.4333 11.7923 12.5114 11.7941C12.5896 11.7959 12.6674 11.7832 12.7406 11.7566C12.8138 11.73 12.8811 11.6899 12.9385 11.6384L12.8717 11.564L12.9385 11.6384C14.398 10.3286 15.1 8.39428 15.1 6.5C15.1 4.60619 14.398 2.67191 12.9385 1.36208L12.8718 1.43638L12.9385 1.36207C12.8227 1.25816 12.669 1.20273 12.5114 1.20635C12.3538 1.20997 12.203 1.27241 12.0925 1.3817C11.9819 1.4912 11.9208 1.63893 11.9247 1.79269C11.9287 1.94643 11.9974 2.091 12.1134 2.1951Z"
        stroke="#009C89" stroke-opacity="0.5" stroke-width="0.2" />
</svg>
