<svg width="21" height="13" viewBox="0 0 21 13" fill="none" xmlns="http://www.w3.org/2000/svg">
                    <g opacity="0.5">
                        <path
                            d="M17.9197 2.18193V4.39767H14.8653L15.6423 3.01942V2.18193H11.8908V3.01942L12.6678 4.39767H10.0241L7.6075 1.92009L6.84007 2.61796L8.5849 4.39718H7.22843C7.24197 4.40871 7.2567 4.42224 7.27248 4.43628L7.36009 4.52321C7.41171 4.57558 7.59513 4.76782 7.67382 4.8638C7.6863 4.87666 7.6934 4.89384 7.6934 4.91176C7.6934 4.92968 7.6863 4.94687 7.67382 4.95973L7.23284 5.39227H20.6072V2.18169L17.9197 2.18193ZM13.7666 4.39767L13.1731 3.17628H14.36L13.7666 4.39767ZM19.6555 4.39767H18.8356V3.17628H19.6555V4.39767ZM6.95802 4.44502L7.01357 4.39767H4.73672V2.18193H2.04947V4.39767H0.00803375V5.39251H6.95215C6.8317 5.27891 6.71155 5.15796 6.59143 5.02965C6.57589 5.01653 6.56304 5.00045 6.55375 4.98236C6.54446 4.96427 6.53896 4.94452 6.53735 4.92424C6.53574 4.90397 6.53813 4.88362 6.54445 4.86429C6.55077 4.84496 6.56078 4.82708 6.57406 4.81167C6.77453 4.61972 6.88811 4.50592 6.95802 4.44502ZM3.78574 4.39767H2.96618V3.17628H3.78574V4.39767Z"
                            fill="#005859" />
                        <path d="M5.76042 1.42291V0.886398L0.00810289 0.886398V1.42291L5.76042 1.42291Z"
                            fill="#009C89" />
                        <path d="M17.0921 1.42291V0.886398L9.89365 0.886398V1.42291L17.0921 1.42291Z" fill="#009C89" />
                        <path
                            d="M19.1073 0.278686L19.0258 0.915992L17.8693 0.924986L17.8051 1.42439L20.5186 1.42268L20.6867 0.114052L19.1073 0.278686ZM20.0937 0.912933L19.5174 0.908712L19.5397 0.736553L20.1256 0.671641L20.0937 0.912933Z"
                            fill="#005859" />
                        <path d="M10.7452 12.5239V11.9873H3.62311V12.5239H10.7452Z" fill="#009C89" />
                        <path d="M20.7525 12.5239V11.9873H16.1359V12.5239H20.7525Z" fill="#009C89" />
                        <path
                            d="M4.4018 8.1924C4.42871 8.22086 4.46546 8.23769 4.50459 8.23933C4.54371 8.24097 4.5821 8.22726 4.61128 8.20115L5.09093 7.72126C5.10254 7.71016 5.10959 7.69527 5.11124 7.67929C5.11289 7.66331 5.10883 7.64732 5.09974 7.63408C5.0213 7.5381 4.82908 7.33736 4.77696 7.28499L4.68959 7.19775C4.58485 7.10177 4.52379 7.06699 4.49773 7.10182L4.37537 7.20656C4.30571 7.2677 4.19213 7.38974 3.99166 7.58244C3.97844 7.59788 3.96858 7.61574 3.96229 7.63506C3.95601 7.65438 3.95359 7.67476 3.95519 7.69501C3.9568 7.71527 3.96234 7.73504 3.97159 7.75313C3.98084 7.77122 3.99355 7.78727 4.00903 7.80043C4.14017 7.93975 4.27116 8.07045 4.4018 8.1924Z"
                            fill="#005859" />
                        <path
                            d="M9.84754 11.3987H7.2643V6.21621H8.32026L8.30264 10.4036H9.88009L9.83946 10.4387C9.76955 10.4996 9.65697 10.6141 9.45575 10.8045C9.4425 10.82 9.43242 10.838 9.42614 10.8573C9.41985 10.8767 9.41741 10.8971 9.41904 10.9174C9.42067 10.9377 9.42613 10.9575 9.43543 10.9757C9.44473 10.9938 9.45758 11.0099 9.47312 11.0231C9.59808 11.1561 9.72291 11.2813 9.84754 11.3987Z"
                            fill="#005859" />
                        <path
                            d="M10.8423 11.3987H10.1004L10.4674 11.0316C10.5922 11.1566 10.7173 11.2817 10.8423 11.3987Z"
                            fill="#005859" />
                        <path
                            d="M10.8751 10.4036L10.834 10.4387C10.7648 10.4996 10.6684 10.6041 10.4848 10.7785C10.3978 10.6825 10.2759 10.5605 10.2408 10.5171L10.1532 10.4296C10.1431 10.4201 10.1333 10.4116 10.1243 10.4046L10.8751 10.4036Z"
                            fill="#005859" />
                        <path
                            d="M13.3014 8.18784V11.3984H11.0962L11.5494 10.9529C11.5622 10.9402 11.5695 10.9229 11.5695 10.9049C11.5695 10.8869 11.5622 10.8696 11.5494 10.8569C11.4713 10.7609 11.2881 10.569 11.2355 10.5169L11.1486 10.4294C11.1383 10.4199 11.1285 10.4114 11.119 10.4044H12.2373V8.18863L13.3014 8.18784Z"
                            fill="#005859" />
                        <path
                            d="M17.9169 10.4038H15.7445V8.25876H14.6715V11.839H13.6157V12.8859H15.7458V11.3995H18.9826V6.25207H17.9181L17.9169 10.4038Z"
                            fill="#005859" />
                        <path
                            d="M20.2248 6.25105H20.2245C19.9331 6.25105 19.6968 6.48733 19.6968 6.77879V10.8707C19.6968 11.1622 19.9331 11.3984 20.2245 11.3984H20.2248C20.5162 11.3984 20.7525 11.1622 20.7525 10.8707V6.77879C20.7525 6.48733 20.5162 6.25105 20.2248 6.25105Z"
                            fill="#005859" />
                        <path
                            d="M9.16051 6.40214L9.07657 7.04116L12.6497 7.01308L12.6022 7.3752L13.2096 7.36816L13.3386 6.38837L9.16051 6.40214Z"
                            fill="#009C89" />
                        <path
                            d="M3.08687 8.17033H2.07545V11.5473H1.0469V9.78841H0V12.5409H3.08687V11.4077H6.53446V8.62869H3.08687V8.17033ZM5.52304 9.68287V10.4039H3.08687V9.68287H5.52304Z"
                            fill="#005859" />
                    </g>
                </svg>
