<svg width="143" height="50" viewBox="0 0 143 50" fill="none" xmlns="http://www.w3.org/2000/svg">
<g clip-path="url(#clip0_63_7094)">
<path d="M131.707 8.09722V16.7723H119.752L122.792 11.3763V8.09455H108.104V11.3763L111.144 16.7723H100.794L91.3334 7.07251L88.3243 9.80744L95.1536 16.7761H89.8431C89.896 16.8208 89.9566 16.8672 90.0149 16.9283L90.3595 17.2693C90.5637 17.4744 91.2808 18.2265 91.5889 18.6011C91.6372 18.652 91.6646 18.7194 91.6646 18.7894C91.6646 18.8595 91.6372 18.9269 91.5889 18.9777L89.8574 20.6706H142.219V8.10078L131.707 8.09722ZM115.448 16.7714L113.125 11.99H117.775L115.448 16.7714ZM138.504 16.7714H135.294V11.99H138.504V16.7714ZM88.7926 16.9539L89.0089 16.7714H80.0972V8.09633H69.5751V16.7714H61.583V20.6661H88.7694C88.2984 20.2219 87.8279 19.7483 87.3575 19.2457C87.2962 19.1947 87.2455 19.132 87.2088 19.0612C87.1721 18.9904 87.1502 18.913 87.1438 18.8335C87.1374 18.754 87.1473 18.674 87.1723 18.5983C87.1972 18.5225 87.2366 18.4525 87.2889 18.3924C88.0729 17.6412 88.5182 17.1964 88.7908 16.9539H88.7926ZM76.3723 16.7714H73.162V11.99H76.3723V16.7714Z" fill="black"/>
<path d="M84.1009 5.12521V3.02478L61.5806 3.02478V5.12521L84.1009 5.12521Z" fill="#3B9499"/>
<path d="M128.468 5.12521V3.02478L100.285 3.02478V5.12521L128.468 5.12521Z" fill="#3B9499"/>
<path d="M136.355 0.645329L136.033 3.13966L131.506 3.17438L131.257 5.13077L141.879 5.12342L142.538 -0.00012207L136.355 0.645329ZM140.216 3.12876L137.955 3.11229L138.046 2.43768L140.342 2.18417L140.216 3.12876Z" fill="black"/>
<path d="M103.617 48.587V46.4866H75.7339V48.587H103.617Z" fill="#3B9499"/>
<path d="M142.797 48.587V46.4866H124.723V48.587H142.797Z" fill="#3B9499"/>
<path d="M78.7818 31.6287C78.8874 31.7398 79.0319 31.8053 79.1851 31.8116C79.3382 31.8179 79.4874 31.7644 79.6017 31.6623L81.4811 29.7833C81.5267 29.7398 81.5547 29.6817 81.5612 29.6191C81.5678 29.5564 81.5523 29.4934 81.5167 29.4415C81.2095 29.0659 80.4567 28.28 80.2525 28.074L79.9116 27.7321C79.4995 27.3565 79.2614 27.2199 79.1602 27.3567L78.6803 27.766C78.4068 28.0048 77.9642 28.4835 77.1784 29.2356C77.0743 29.3578 77.0223 29.5163 77.0351 29.6763C77.0479 29.8363 77.1239 29.9848 77.2461 30.0889C77.7578 30.6396 78.2701 31.1528 78.7818 31.6287Z" fill="black"/>
<path d="M100.104 44.181H89.9905V23.8914H94.1222L94.0573 40.2856H100.23L100.071 40.4222C99.7976 40.6611 99.355 41.1051 98.5683 41.8554C98.5161 41.9158 98.4765 41.986 98.4517 42.0619C98.4268 42.1378 98.4176 42.2178 98.4241 42.2974C98.4305 42.377 98.4532 42.4546 98.4899 42.5255C98.5267 42.5964 98.5765 42.6593 98.6377 42.7105C99.1258 43.2313 99.6148 43.7215 100.104 44.181Z" fill="black"/>
<path d="M104 44.1809H101.094L102.532 42.7443C103.018 43.2338 103.509 43.7224 104 44.1809Z" fill="black"/>
<path d="M104.126 40.2855L103.964 40.4233C103.691 40.6612 103.318 41.0705 102.597 41.7534C102.255 41.3778 101.776 40.9 101.639 40.7295L101.297 40.3877C101.259 40.3503 101.22 40.3165 101.185 40.2855H104.126Z" fill="black"/>
<path d="M113.624 31.6111V44.1809H104.99L106.766 42.4369C106.815 42.3868 106.843 42.3194 106.843 42.2488C106.843 42.1783 106.815 42.1106 106.766 42.0605C106.457 41.6849 105.741 40.9329 105.534 40.7296L105.194 40.3868C105.155 40.3494 105.116 40.3165 105.08 40.2855H109.457V31.6102L113.624 31.6111Z" fill="black"/>
<path d="M131.696 40.2863H123.189V31.8839H118.99V45.9013H114.857V50.0037H123.19V44.1837H135.862V24.0319H131.696V40.2863Z" fill="black"/>
<path d="M142.797 26.0949C142.797 24.9535 141.872 24.0282 140.731 24.0282C139.59 24.0282 138.665 24.9535 138.665 26.0949V42.1143C138.665 43.2557 139.59 44.181 140.731 44.181C141.872 44.181 142.797 43.2557 142.797 42.1143V26.0949Z" fill="black"/>
<path d="M97.4143 24.619L97.0858 27.1214L111.073 27.011L110.89 28.4287L113.269 28.4022L113.774 24.566L97.4143 24.619Z" fill="#3B9499"/>
<path d="M73.634 31.5428H69.674V44.7617H65.6473V37.8761H61.5449V48.6526H73.634V44.211H87.1333V33.3305H73.634V31.5428ZM83.1706 37.4685V40.2947H73.634V37.4685H83.1706Z" fill="black"/>
<path d="M4.0599 5.72591C4.17092 5.72953 4.28152 5.71037 4.38485 5.6696C4.48818 5.62883 4.5813 5.56732 4.65994 5.48887C4.81153 5.33709 4.89676 5.13139 4.89676 4.91687C4.89676 4.70235 4.81153 4.49665 4.65994 4.34487C4.49704 4.19279 4.28276 4.10828 4.0599 4.10828C3.83704 4.10828 3.62276 4.19279 3.45985 4.34487C3.30826 4.49665 3.22304 4.70235 3.22304 4.91687C3.22304 5.13139 3.30826 5.33709 3.45985 5.48887C3.53839 5.5672 3.63179 5.62861 3.73495 5.66938C3.83811 5.71014 3.94903 5.7294 4.0599 5.72591Z" fill="black"/>
<path d="M1.88549 5.72591C1.99583 5.72955 2.10518 5.71038 2.20777 5.6696C2.31036 5.62881 2.40336 5.56728 2.48109 5.48887C2.55691 5.41415 2.61715 5.32512 2.65825 5.22691C2.69935 5.1287 2.72057 5.02333 2.72057 4.91687C2.72057 4.81041 2.69935 4.70504 2.65825 4.60683C2.61715 4.50862 2.55691 4.41959 2.48109 4.34487C2.31888 4.19284 2.10513 4.10828 1.88282 4.10828C1.66051 4.10828 1.44676 4.19284 1.28455 4.34487C1.20895 4.41972 1.14924 4.50886 1.10828 4.60705C1.06732 4.70524 1.04596 4.81048 1.04596 4.91687C1.04596 5.02326 1.06732 5.12872 1.10828 5.22691C1.14924 5.3251 1.20895 5.41402 1.28455 5.48887C1.36307 5.5675 1.45718 5.62927 1.56054 5.67004C1.6639 5.71082 1.77445 5.72974 1.88549 5.72591Z" fill="black"/>
<path d="M28.471 5.72598C28.5821 5.72882 28.6917 5.70927 28.7951 5.66856C28.8985 5.62784 28.9927 5.56677 29.072 5.48894C29.148 5.41434 29.2088 5.32543 29.25 5.2272C29.2913 5.12898 29.3124 5.02347 29.3124 4.91694C29.3124 4.81041 29.2913 4.7049 29.25 4.60668C29.2088 4.50845 29.148 4.41954 29.072 4.34494C28.9926 4.26728 28.8984 4.20625 28.7951 4.16555C28.6918 4.12484 28.5821 4.10527 28.471 4.1079C28.362 4.1059 28.2535 4.12572 28.1523 4.16644C28.0512 4.20716 27.9589 4.26796 27.8817 4.34494C27.8056 4.41954 27.7449 4.50845 27.7036 4.60668C27.6624 4.7049 27.6413 4.81041 27.6413 4.91694C27.6413 5.02347 27.6624 5.12898 27.7036 5.2272C27.7449 5.32543 27.8056 5.41434 27.8817 5.48894C27.9588 5.56605 28.0511 5.62694 28.1523 5.66767C28.2535 5.70839 28.362 5.72814 28.471 5.72598Z" fill="black"/>
<path d="M49.4911 2.65735H47.9144V11.0291H45.8792C45.7001 11.0516 45.5185 11.0301 45.3495 10.9665C45.1805 10.903 45.0297 10.7992 44.9097 10.6643C44.7278 10.3926 44.6367 10.0702 44.6498 9.74351V2.65735H43.0473V10.3033C43.0555 10.486 43.0194 10.668 42.9422 10.8339C42.8992 10.902 42.8378 10.9565 42.765 10.991C42.6923 11.0255 42.6109 11.0388 42.5309 11.0291H31.0339C30.7082 11.0356 30.383 11.0218 30.059 10.9879C30.5603 10.5538 30.9674 10.0222 31.2564 9.42546C31.446 9.01356 31.5507 8.56775 31.5645 8.11452C31.5592 7.92035 31.5016 7.73118 31.3971 7.56745C31.2682 7.35915 31.0966 7.18077 30.8932 7.04419C30.6337 6.86924 30.3458 6.73956 30.043 6.66048C29.642 6.55565 29.2288 6.50615 28.8144 6.51358C28.5049 6.51375 28.1965 6.54661 27.8939 6.61129C27.5874 6.67692 27.286 6.76539 26.9929 6.87637C26.7069 6.98553 26.4294 7.11645 26.1632 7.26765C25.9185 7.40674 25.6858 7.56559 25.467 7.74261L25.5204 8.85924C25.5768 9.00744 25.648 9.14979 25.7323 9.28412C25.8436 9.47304 25.9648 9.65573 26.0964 9.8312C26.2368 10.022 26.3887 10.215 26.5522 10.4101C26.7104 10.5961 26.8794 10.773 27.057 10.9405C26.924 10.972 26.7887 10.9953 26.6528 11.0099C26.4712 11.0296 26.2889 11.0387 26.1062 11.0373H5.69035V9.37716C5.69524 8.9942 5.6313 8.61333 5.50161 8.25296C5.38606 7.92582 5.20251 7.6273 4.96211 7.37715C4.7217 7.127 4.43062 6.93116 4.10833 6.8027C3.76031 6.66471 3.38853 6.59581 3.01418 6.60016C2.59998 6.59509 2.18958 6.68345 1.81409 6.85834C1.45722 7.02568 1.13955 7.26532 0.880186 7.56211C0.614083 7.8691 0.404649 8.22131 0.263224 8.60217C0.11505 9.00148 0.0410275 9.42443 0.0433258 9.85034C0.0428779 10.1965 0.098593 10.5404 0.208917 10.8686C0.323262 11.2052 0.509613 11.5127 0.755547 11.7693C1.03005 12.0483 1.36109 12.2658 1.72595 12.4074C2.18686 12.5818 2.67737 12.6646 3.16998 12.6509H26.1071C26.5188 12.65 26.929 12.6032 27.3303 12.5114C27.7344 12.4223 28.1222 12.2717 28.4805 12.0647C28.7868 12.2293 29.1104 12.3604 29.4447 12.4557C29.9534 12.5977 30.4801 12.6636 31.008 12.6509H42.6012C42.955 12.6599 43.3057 12.5808 43.6215 12.421C43.9114 12.2665 44.1449 12.0249 44.2901 11.7302C44.4338 11.9789 44.6264 12.1959 44.8563 12.3683C45.1371 12.5701 45.4786 12.6707 45.824 12.6536H49.4946L49.4911 2.65735ZM4.10121 11.0291H3.12457C2.93389 11.0299 2.74386 11.0045 2.56014 10.9534C2.38382 10.9049 2.21966 10.819 2.07939 10.7017C1.93521 10.5798 1.82012 10.4272 1.74286 10.255C1.65472 10.0454 1.6124 9.81944 1.61823 9.59216C1.60782 9.20123 1.75341 8.82216 2.02241 8.5383C2.13978 8.41569 2.27855 8.31658 2.43283 8.24584C2.5842 8.17669 2.74895 8.14095 2.91536 8.14101C3.08714 8.13126 3.2588 8.16516 3.41391 8.23961C3.56903 8.31406 3.70223 8.42644 3.80207 8.56656C4.0234 8.93365 4.12781 9.35953 4.10121 9.78735V11.0291ZM29.9281 8.88016C29.8455 9.06302 29.7429 9.23623 29.6219 9.3963C29.4822 9.58206 29.3263 9.75469 29.1554 9.91221C29.1254 10.037 29.0537 10.1479 28.9524 10.2267C28.8511 10.3055 28.7264 10.3476 28.5981 10.346C28.4697 10.3444 28.3457 10.2993 28.2464 10.218C28.1471 10.1367 28.0783 10.0241 28.0514 9.89864C27.882 9.72468 27.7213 9.54202 27.5707 9.35156C27.4358 9.18681 27.3103 9.01461 27.195 8.83565C27.1156 8.7198 27.046 8.59773 26.9858 8.47086C27.2464 8.32283 27.5289 8.21699 27.8226 8.15726C28.2858 8.04569 28.7641 8.01278 29.2382 8.05977C29.3725 8.07196 29.5063 8.09306 29.6379 8.12276C29.7416 8.14403 29.8399 8.18409 29.929 8.24117C29.9623 8.26037 29.9904 8.2878 30.01 8.32084C30.0297 8.35389 30.0403 8.39148 30.0412 8.4299C30.0353 8.58597 29.9968 8.73988 29.9281 8.88016Z" fill="black"/>
<path d="M4.66084 22.1118C4.81249 21.9599 4.89766 21.754 4.89766 21.5394C4.89766 21.3247 4.81249 21.1189 4.66084 20.9669C4.49794 20.8148 4.28366 20.7301 4.0608 20.7301C3.83794 20.7301 3.62366 20.8148 3.46075 20.9669C3.30911 21.1189 3.22394 21.3247 3.22394 21.5394C3.22394 21.754 3.30911 21.9599 3.46075 22.1118C3.62356 22.2641 3.83788 22.3488 4.0608 22.3488C4.28372 22.3488 4.49804 22.2641 4.66084 22.1118Z" fill="black"/>
<path d="M1.88549 22.3489C1.99582 22.3524 2.1052 22.3333 2.20777 22.2926C2.31035 22.2518 2.4033 22.1902 2.48109 22.1118C2.55694 22.037 2.61803 21.9479 2.65914 21.8496C2.70025 21.7514 2.72057 21.6459 2.72057 21.5394C2.72057 21.4329 2.70025 21.3274 2.65914 21.2291C2.61803 21.1308 2.55694 21.0417 2.48109 20.9669C2.31888 20.8149 2.10513 20.7303 1.88282 20.7303C1.66051 20.7303 1.44676 20.8149 1.28455 20.9669C1.20892 21.0419 1.14925 21.1311 1.10828 21.2293C1.06731 21.3276 1.04596 21.4329 1.04596 21.5394C1.04596 21.6459 1.06731 21.7512 1.10828 21.8494C1.14925 21.9477 1.20892 22.0369 1.28455 22.1118C1.36313 22.1904 1.4572 22.252 1.56054 22.2928C1.66388 22.3336 1.77446 22.3526 1.88549 22.3489Z" fill="black"/>
<path d="M0.262329 25.217C0.114154 25.6163 0.0392416 26.039 0.04154 26.4649C0.0411084 26.8111 0.0977132 27.1552 0.208022 27.4834C0.32254 27.8196 0.508877 28.1266 0.754652 28.383C1.02905 28.6621 1.36011 28.8799 1.72505 29.0214C2.18583 29.1963 2.6764 29.2791 3.16908 29.2655H14.7908C15.1461 29.2751 15.4963 29.183 15.8012 29.0002C16.0747 28.8352 16.3035 28.6051 16.4663 28.3303C16.6111 28.5782 16.8036 28.795 17.0325 28.9684C17.316 29.176 17.6626 29.2797 18.0136 29.262H24.2126V23.7082H22.6225V27.6428H18.059C17.8809 27.6635 17.7005 27.6412 17.5328 27.5778C17.3651 27.5143 17.2145 27.4116 17.0948 27.2782C16.9096 27.0078 16.8165 26.6849 16.8295 26.3574V23.7064H15.2421V26.9154C15.2496 27.0981 15.2135 27.2799 15.1371 27.446C15.0939 27.5139 15.0326 27.5682 14.9599 27.6027C14.8872 27.6372 14.8057 27.6505 14.7258 27.641H5.70014V25.9808C5.70492 25.5982 5.64098 25.2178 5.5114 24.8578C5.3958 24.5305 5.21228 24.2318 4.97189 23.9815C4.7315 23.7312 4.44041 23.5351 4.11812 23.4064C3.7701 23.2684 3.39832 23.1997 3.02397 23.2041C2.60977 23.199 2.19937 23.2871 1.82387 23.462C1.46684 23.6295 1.14914 23.8694 0.889974 24.1667C0.618892 24.4758 0.405921 24.8317 0.262329 25.217ZM1.72772 25.6145C1.79786 25.4464 1.89749 25.2921 2.02152 25.1587C2.13869 25.0356 2.27749 24.936 2.43193 24.8651C2.58327 24.7958 2.74804 24.7601 2.91446 24.7603C3.08625 24.7504 3.25789 24.7842 3.41302 24.8586C3.56815 24.9331 3.70139 25.0459 3.80118 25.186C4.02256 25.5531 4.12698 25.9788 4.10031 26.4066V27.6483H3.12368C2.93293 27.6491 2.74288 27.6233 2.55924 27.5718C2.37926 27.5238 2.21241 27.4362 2.07048 27.3156C1.92855 27.1949 1.81476 27.0441 1.73841 26.8742C1.65029 26.6647 1.60798 26.4389 1.61377 26.2116C1.61213 26.0067 1.65085 25.8044 1.72772 25.6145Z" fill="black"/>
<path d="M16.5078 30.4507C16.4309 30.524 16.3698 30.6126 16.3289 30.7106C16.2879 30.8087 16.2673 30.9142 16.2692 31.0204C16.2664 31.129 16.2861 31.237 16.3271 31.3376C16.368 31.4382 16.4299 31.529 16.5078 31.6047C16.6718 31.7539 16.8853 31.8366 17.107 31.8366C17.3287 31.8366 17.5422 31.7539 17.7061 31.6047C17.7841 31.5291 17.8452 31.4382 17.886 31.3376C17.9268 31.237 17.9462 31.129 17.9429 31.0204C17.9452 30.9142 17.9259 30.8087 17.8851 30.7106C17.8443 30.6125 17.783 30.524 17.7061 30.4507C17.5422 30.3015 17.3287 30.2188 17.107 30.2188C16.8853 30.2188 16.6718 30.3015 16.5078 30.4507Z" fill="black"/>
<path d="M14.3429 30.4507C14.2663 30.5242 14.2064 30.6128 14.1658 30.7109C14.1251 30.8089 14.1048 30.9143 14.107 31.0205C14.1038 31.1289 14.1234 31.2368 14.164 31.3374C14.2046 31.438 14.2653 31.5289 14.3429 31.6047C14.5072 31.7538 14.7212 31.8364 14.943 31.8364C15.1648 31.8364 15.3788 31.7538 15.543 31.6047C15.6213 31.5293 15.6828 31.4385 15.7238 31.3378C15.7647 31.2372 15.7841 31.1291 15.7807 31.0205C15.783 30.9141 15.763 30.8086 15.722 30.7104C15.681 30.6123 15.6202 30.5238 15.543 30.4507C15.3788 30.3016 15.1648 30.219 14.943 30.219C14.7212 30.219 14.5072 30.3016 14.3429 30.4507Z" fill="black"/>
<path d="M23.7852 30.4508C23.7076 30.3749 23.6155 30.3154 23.5145 30.2756C23.4135 30.2359 23.3052 30.2167 23.1967 30.2193C23.0858 30.2163 22.9762 30.235 22.8726 30.2747C22.7691 30.3145 22.6744 30.3744 22.594 30.4508C22.5162 30.5236 22.4538 30.6119 22.4123 30.7101C22.3709 30.8082 22.3507 30.914 22.3527 31.0206C22.3497 31.1294 22.37 31.2375 22.4115 31.3382C22.4529 31.4388 22.5152 31.5297 22.594 31.6048C22.6743 31.6813 22.769 31.7411 22.8726 31.7809C22.9762 31.8206 23.0858 31.8396 23.1967 31.8365C23.3052 31.8391 23.4135 31.82 23.5145 31.7802C23.6155 31.7404 23.7076 31.6807 23.7852 31.6048C23.8644 31.5299 23.9268 31.4393 23.9685 31.3386C24.0103 31.2379 24.0302 31.1295 24.0273 31.0206C24.0292 30.9139 24.0086 30.808 23.9668 30.7099C23.925 30.6117 23.8633 30.5234 23.7852 30.4508Z" fill="black"/>
<path d="M44.2185 27.6511H41.4693C41.1436 27.6575 40.8184 27.6433 40.4945 27.6091C40.9966 27.176 41.4036 26.6442 41.691 26.0466C41.8797 25.6341 41.9841 25.188 41.9982 24.7346C41.9923 24.5408 41.9354 24.3521 41.8326 24.1877C41.7032 23.9801 41.532 23.8018 41.3296 23.6645C41.0696 23.4898 40.7815 23.3599 40.4785 23.2805C40.0772 23.1757 39.6637 23.1264 39.249 23.1339C38.9395 23.1343 38.6311 23.1669 38.3284 23.2314C37.7208 23.3599 37.1362 23.5813 36.596 23.8877C36.351 24.0261 36.1184 24.1847 35.8998 24.3618L35.9541 25.4777C36.0094 25.6264 36.0801 25.7691 36.1642 25.9035C36.2663 26.0758 36.3861 26.2571 36.5283 26.4504C36.6705 26.6436 36.8209 26.8342 36.9841 27.0293C37.1424 27.2149 37.311 27.392 37.488 27.5599C37.355 27.5915 37.2198 27.6145 37.0838 27.6291C36.9022 27.6492 36.7199 27.6586 36.5372 27.6574H30.1904C30.009 27.68 29.8242 27.6587 29.6527 27.5953C29.4812 27.5318 29.3279 27.4281 29.2049 27.2928C29.024 27.0207 28.9335 26.6985 28.9467 26.372V23.7201H27.3593V28.9247C27.3803 29.3172 27.308 29.7091 27.1492 30.0687C27.0639 30.2053 26.942 30.3148 26.7967 30.3841C26.6513 30.4534 26.4891 30.4795 26.3293 30.4597C26.2144 30.4591 26.0997 30.4521 25.9856 30.4388C25.8607 30.4251 25.7426 30.4088 25.6295 30.3896L25.2378 30.3057L25.0704 31.8966C25.1276 31.9151 25.1856 31.929 25.2449 31.9385L25.4479 31.9668C25.5591 31.985 25.6909 32.0014 25.8459 32.0159C26.0008 32.0305 26.1597 32.0369 26.3284 32.0369C26.7171 32.0447 27.1028 31.9659 27.4573 31.8063C27.7751 31.6576 28.0549 31.4396 28.2772 31.1682C28.5061 30.8886 28.6765 30.5658 28.7784 30.2191C28.8926 29.8389 28.9496 29.4438 28.9467 29.0469V28.6703C29.1031 28.8408 29.2879 28.9824 29.4933 29.0887C29.7208 29.2109 29.9759 29.2735 30.234 29.271H36.5399C36.951 29.2698 37.3605 29.223 37.7613 29.1314C38.1657 29.0422 38.5537 28.8916 38.9125 28.6847C39.2187 28.849 39.5424 28.98 39.8766 29.0751C40.3849 29.2172 40.9114 29.2829 41.4391 29.2701H45.7934V19.2794H44.2158L44.2185 27.6511ZM40.3663 25.5022C40.2835 25.6853 40.1809 25.8588 40.06 26.0193C39.9208 26.2054 39.7648 26.378 39.5935 26.5352C39.4152 26.6982 39.2212 26.8431 39.014 26.9674C38.8248 26.8366 38.6493 26.6869 38.4905 26.5207C38.3204 26.3473 38.1597 26.1646 38.0097 25.9736C37.8747 25.8086 37.7487 25.6364 37.6322 25.4577C37.5539 25.3412 37.4843 25.2192 37.423 25.0929C37.6837 24.9448 37.9661 24.839 38.2599 24.7793C38.5799 24.7034 38.9077 24.6637 39.2365 24.6609C39.386 24.6609 39.5314 24.6682 39.6763 24.6818C39.81 24.6941 39.9433 24.7152 40.0743 24.7448C40.1784 24.7656 40.2771 24.8057 40.3663 24.8632C40.3997 24.8823 40.4284 24.9096 40.4482 24.9427C40.468 24.9757 40.4783 25.0135 40.4793 25.052C40.4738 25.2083 40.4347 25.3616 40.3663 25.5022Z" fill="black"/>
<path d="M49.6609 19.2794H48.0837V29.2701H49.6609V19.2794Z" fill="black"/>
<path d="M3.39198 37.5898C3.31637 37.6647 3.25666 37.7536 3.2157 37.8518C3.17474 37.95 3.15338 38.0554 3.15338 38.1618C3.15338 38.2682 3.17474 38.3734 3.2157 38.4716C3.25666 38.5698 3.31637 38.659 3.39198 38.7338C3.55418 38.8859 3.76882 38.9704 3.99113 38.9704C4.21344 38.9704 4.4272 38.8859 4.5894 38.7338C4.66523 38.6591 4.72546 38.5701 4.76656 38.4719C4.80766 38.3737 4.82888 38.2683 4.82888 38.1618C4.82888 38.0554 4.80766 37.95 4.76656 37.8518C4.72546 37.7536 4.66523 37.6645 4.5894 37.5898C4.4273 37.4376 4.21351 37.3528 3.99113 37.3528C3.76876 37.3528 3.55408 37.4376 3.39198 37.5898Z" fill="black"/>
<path d="M4.91675 40.6082C4.6769 40.3593 4.38646 40.1643 4.06565 40.0357C3.71753 39.8982 3.34667 39.8296 2.97239 39.8341C2.55824 39.8295 2.14795 39.9178 1.77229 40.0923C1.41381 40.2612 1.09301 40.5009 0.82949 40.7969C0.560583 41.101 0.352464 41.4537 0.216089 41.8361C0.0720783 42.2366 -0.000756586 42.6595 0.00153243 43.0851C0.00134407 43.4315 0.0585316 43.7754 0.169795 44.1034C0.283083 44.4402 0.469575 44.7476 0.716425 45.0032C0.990234 45.2826 1.32109 45.5002 1.68594 45.6413C2.14743 45.816 2.63849 45.8991 3.13175 45.8857H5.65568V42.6037C5.66121 42.2215 5.59932 41.8414 5.47317 41.4806C5.35021 41.1542 5.16109 40.8571 4.91675 40.6082ZM4.05852 44.2703H3.08367C2.89264 44.2709 2.70233 44.2452 2.51835 44.1938C2.34202 44.1453 2.17787 44.0594 2.0376 43.942C1.89326 43.8204 1.77814 43.6677 1.70107 43.4953C1.61278 43.2858 1.57073 43.0598 1.57732 42.8325C1.57392 42.6273 1.61121 42.4235 1.68683 42.2327C1.756 42.0643 1.85453 41.9099 1.97884 41.7769C2.09717 41.6542 2.23768 41.5549 2.39282 41.4842C2.53896 41.4158 2.69886 41.38 2.86021 41.3794C3.03277 41.3696 3.20455 41.4036 3.36055 41.478C3.51654 41.5524 3.65127 41.6649 3.75227 41.8051C3.97951 42.17 4.08685 42.597 4.05941 43.0259L4.05852 44.2703Z" fill="black"/>
<path d="M1.2131 37.5899C1.06151 37.7417 0.976288 37.9474 0.976288 38.1619C0.976288 38.3764 1.06151 38.5821 1.2131 38.7339C1.37571 38.8859 1.5906 38.9703 1.81315 38.9703C2.0357 38.9703 2.2497 38.8859 2.4123 38.7339C2.48769 38.659 2.54776 38.5699 2.58858 38.4717C2.6294 38.3736 2.65001 38.2682 2.65001 38.1619C2.65001 38.0556 2.6294 37.9503 2.58858 37.8521C2.54776 37.7539 2.48769 37.6649 2.4123 37.5899C2.2499 37.4376 2.03583 37.3527 1.81315 37.3527C1.59047 37.3527 1.3755 37.4376 1.2131 37.5899Z" fill="black"/>
<path d="M20.9565 40.8616C20.6821 40.5476 20.3417 40.2987 19.9593 40.1325C19.525 39.9479 19.0566 39.8575 18.5848 39.8672C17.9995 39.8716 17.4244 40.0199 16.9101 40.2992C16.3576 40.5903 15.8764 40.9999 15.5008 41.4988V40.3248H13.8957V44.274H11.5533C11.3719 44.297 11.1872 44.2759 11.0156 44.2124C10.8441 44.1489 10.6906 44.0448 10.5678 43.9092C10.3874 43.637 10.2969 43.3149 10.3096 42.9885V40.3366H8.72049V45.5411C8.7424 45.9342 8.67038 46.3269 8.50949 46.6862C8.42436 46.823 8.30145 46.9323 8.15605 47.0016C8.01065 47.0709 7.84849 47.0973 7.68866 47.0773C7.57438 47.0765 7.46024 47.0692 7.34679 47.0555C7.22007 47.0418 7.10279 47.0252 6.99157 47.007L6.59896 46.9233L6.43336 48.514C6.48925 48.5324 6.54701 48.5461 6.60519 48.5549L6.80906 48.5832C6.92028 48.6014 7.05299 48.618 7.20523 48.6317C7.35748 48.6454 7.52093 48.6526 7.68776 48.6526C8.07647 48.661 8.46237 48.582 8.81664 48.4218C9.13589 48.2735 9.41807 48.0554 9.64192 47.7837C9.8703 47.5037 10.0406 47.1811 10.1431 46.8347C10.2581 46.4547 10.3143 46.0595 10.3105 45.6624V45.2858C10.4668 45.4567 10.6525 45.5986 10.858 45.7052C11.0851 45.8274 11.3391 45.8903 11.597 45.8877H21.7684V43.3624C21.7727 42.8897 21.7053 42.419 21.5681 41.9667C21.442 41.5605 21.2333 41.1844 20.9565 40.8616ZM20.1623 44.2731H15.5302C15.6221 43.4732 15.9985 42.7329 16.5905 42.1872C16.8491 41.9478 17.1465 41.7542 17.4701 41.6148C17.9913 41.3841 18.5778 41.3493 19.1225 41.5171C19.3343 41.5829 19.5266 41.7004 19.6816 41.8589C19.8482 42.0408 19.9691 42.2596 20.035 42.4973C20.1282 42.8169 20.1718 43.1489 20.1632 43.4817L20.1623 44.2731Z" fill="black"/>
<path d="M44.0659 44.2739H42.6299C42.5893 44.264 42.5479 44.2593 42.5062 44.2594H42.004C41.7759 44.27 41.548 44.2276 41.339 44.1354C41.1957 44.0662 41.0712 43.9639 40.9749 43.8372C40.8935 43.7299 40.8387 43.6051 40.8146 43.4726C40.7933 43.3675 40.7814 43.2607 40.779 43.1535C40.8321 42.2896 40.5772 41.4349 40.0597 40.7413C39.8027 40.4497 39.4821 40.2208 39.1231 40.0718C38.7642 39.9228 38.3759 39.8579 37.988 39.8817C37.603 39.8794 37.222 39.9563 36.868 40.1078C36.514 40.2593 36.1947 40.4822 35.9306 40.7624C35.6689 41.0432 35.4649 41.3728 35.3305 41.7324C35.1826 42.1244 35.1097 42.5404 35.1142 42.9594C35.1199 43.1809 35.0964 43.4021 35.0448 43.6175C35.0107 43.7631 34.9467 43.9002 34.8569 44.0197C34.787 44.1103 34.692 44.1781 34.5836 44.2147C34.4842 44.2459 34.3798 44.2619 34.2756 44.2621H33.7289C33.6929 44.262 33.6568 44.267 33.6221 44.2768H32.6116C32.2859 44.2831 31.9598 44.269 31.6359 44.2347C32.1376 43.8005 32.5461 43.269 32.836 42.6723C33.024 42.2596 33.128 41.8137 33.1422 41.3604C33.1358 41.1665 33.0774 40.9776 32.974 40.8134C32.8465 40.6042 32.675 40.4256 32.471 40.2901C32.2111 40.1145 31.9235 39.9848 31.6199 39.9064C31.2191 39.8019 30.8054 39.7524 30.3913 39.7595C30.0821 39.7597 29.774 39.7923 29.4716 39.857C29.1652 39.9214 28.8641 40.0099 28.5715 40.1214C28.2849 40.2302 28.0069 40.3607 27.74 40.5116C27.495 40.6506 27.262 40.8094 27.0429 40.9865L27.1008 42.1025C27.1554 42.2511 27.2246 42.3938 27.3082 42.5283C27.4116 42.7003 27.5335 42.8825 27.6733 43.0751C27.8127 43.2657 27.9658 43.458 28.1344 43.654C28.2929 43.8392 28.4603 44.0163 28.6365 44.1846C28.5034 44.2158 28.3682 44.2389 28.2324 44.2538C28.0507 44.2736 27.8684 44.283 27.6857 44.2821H25.3844V35.9106H23.7925V45.9004H27.6866C28.0977 45.8991 28.5073 45.8522 28.9081 45.7609C29.3124 45.6715 29.7004 45.5209 30.0592 45.3142C30.3646 45.4789 30.6877 45.6097 31.0216 45.7043C31.5305 45.8465 32.0576 45.9123 32.5858 45.8995H34.3575C34.6527 45.9022 34.9403 45.8084 35.1774 45.6324C35.4161 45.4569 35.6078 45.2245 35.7347 44.9567C35.9635 45.26 36.2559 45.509 36.5921 45.6861C37.0014 45.8875 37.4546 45.9844 37.9106 45.9678C38.1348 45.9678 38.3515 45.9587 38.5667 45.9396C38.7764 45.9217 38.9837 45.8767 39.1819 45.8056C39.3894 45.728 39.5825 45.6164 39.7534 45.4755C39.9625 45.2988 40.1418 45.0896 40.284 44.8557C40.4326 45.1725 40.669 45.4393 40.966 45.6242C41.263 45.8091 41.6079 45.904 41.9578 45.8975H45.6426V35.9015H44.0659V44.2739ZM31.5077 42.1243C31.4245 42.3071 31.3207 42.48 31.1996 42.6402C31.0614 42.8272 30.9054 43.0002 30.7331 43.1564C30.7033 43.2809 30.6321 43.3917 30.531 43.4704C30.43 43.5491 30.3048 43.5912 30.1767 43.5897C30.0486 43.5882 29.9251 43.5432 29.8259 43.4622C29.7267 43.3811 29.658 43.2687 29.631 43.1434C29.459 42.966 29.298 42.7838 29.1484 42.5966C28.9989 42.4143 28.8758 42.2373 28.7719 42.0796C28.6944 41.9627 28.6242 41.841 28.5626 41.715C28.8232 41.5674 29.1053 41.4615 29.3986 41.4014C29.7195 41.3254 30.0481 41.2856 30.3779 41.2828C30.5265 41.2828 30.6719 41.2902 30.8168 41.3039C30.9503 41.316 31.0832 41.3369 31.2139 41.3667C31.3179 41.3878 31.4174 41.4281 31.5068 41.4853C31.5399 41.5047 31.5675 41.5322 31.5869 41.5652C31.6064 41.5982 31.6162 41.6357 31.6172 41.674C31.6124 41.8301 31.575 41.9834 31.5077 42.1243ZM38.9522 43.9476C38.6878 44.2015 38.3349 44.3433 37.9684 44.3433C37.6019 44.3433 37.2499 44.2015 36.9856 43.9476C36.7706 43.6675 36.6599 43.3214 36.6722 42.9685C36.6692 42.7467 36.7034 42.5259 36.7746 42.3157C36.8374 42.1341 36.9324 41.9651 37.0541 41.8163C37.1646 41.6814 37.3033 41.5726 37.461 41.4982C37.6186 41.4238 37.7914 41.3854 37.9657 41.3858C38.1349 41.3863 38.301 41.4243 38.4536 41.4971C38.6127 41.5716 38.753 41.681 38.864 41.8172C38.9858 41.9671 39.0829 42.1357 39.1507 42.3166C39.2268 42.5257 39.2646 42.7469 39.262 42.9694C39.274 43.3215 39.1652 43.667 38.9522 43.9476Z" fill="black"/>
<path d="M49.5068 35.9014H47.9297V45.8921H49.5068V35.9014Z" fill="black"/>
</g>
<defs>
<clipPath id="clip0_63_7094">
<rect width="142.798" height="50" fill="white"/>
</clipPath>
</defs>
</svg>
