<svg width="13" height="14" viewBox="0 0 13 14" fill="none" xmlns="http://www.w3.org/2000/svg">
    <path fill-rule="evenodd" clip-rule="evenodd"
        d="M8.21302 12.6026C8.01351 13.0677 7.49857 13.4896 6.84883 13.3642C5.85535 13.1735 4.80053 12.42 4.72639 11.198L4.72235 11.0605L4.72235 9.37547L3.10136 9.37547C2.71759 9.37549 2.33824 9.29358 1.98867 9.13521C1.6391 8.97684 1.32737 8.74566 1.07432 8.45714C0.821269 8.16861 0.632735 7.82939 0.52132 7.46215C0.409905 7.0949 0.378177 6.70811 0.428259 6.32762L0.44848 6.19686L1.06182 2.82683C1.17057 2.22829 1.47855 1.68411 1.9357 1.28276C2.39286 0.881398 2.97232 0.646449 3.57991 0.616097L3.71404 0.613401L10.7884 0.613402C11.3042 0.613373 11.8004 0.810431 12.1757 1.16426C12.5509 1.51808 12.7768 2.00192 12.807 2.51679L12.8104 2.63542L12.8104 6.67945C12.8104 7.19521 12.6134 7.69148 12.2596 8.06673C11.9057 8.44198 11.4219 8.66784 10.907 8.6981L10.7884 8.70147L9.88523 8.70147L8.21302 12.6026ZM10.1144 7.35346L10.7884 7.35346C10.9672 7.35346 11.1386 7.28244 11.265 7.15604C11.3914 7.02964 11.4624 6.85821 11.4624 6.67945L11.4624 2.63542C11.4624 2.45666 11.3914 2.28522 11.265 2.15882C11.1386 2.03242 10.9672 1.96141 10.7884 1.96141L10.1144 1.96141L10.1144 7.35346ZM6.99711 12.0176L8.71178 8.016C8.73574 7.96026 8.75207 7.90154 8.76031 7.84143L8.76638 7.75112L8.76638 1.96141L3.71404 1.96141C3.41684 1.96139 3.12796 2.05958 2.89234 2.24071C2.65672 2.42184 2.48756 2.67577 2.41118 2.96298L2.38759 3.06813L1.77425 6.43816C1.74036 6.62418 1.74598 6.81526 1.79076 6.99898C1.83554 7.18269 1.91847 7.35493 2.03416 7.5045C2.14985 7.65407 2.29571 7.77762 2.46227 7.86714C2.62883 7.95666 2.81236 8.01013 3.00094 8.02409L3.10136 8.02746L4.72235 8.02746C5.06243 8.02735 5.38999 8.15579 5.63936 8.38704C5.88873 8.61828 6.04148 8.93524 6.06699 9.27437L6.07036 9.37547L6.07036 11.0605C6.07036 11.4332 6.36288 11.8127 6.88253 11.9839L6.99711 12.0176Z"
        fill="#009C89" fill-opacity="0.5" />
</svg>
