<svg width="13" height="14" viewBox="0 0 13 14" fill="none" xmlns="http://www.w3.org/2000/svg">
    <path fill-rule="evenodd" clip-rule="evenodd"
        d="M4.59739 1.39739C4.7969 0.932328 5.31184 0.5104 5.96158 0.635765C6.95506 0.826509 8.00988 1.58005 8.08402 2.80202L8.08806 2.93952V4.62453H9.70905C10.0928 4.62451 10.4722 4.70642 10.8217 4.86479C11.1713 5.02316 11.483 5.25434 11.7361 5.54286C11.9891 5.83139 12.1777 6.17061 12.2891 6.53785C12.4005 6.90509 12.4322 7.29189 12.3822 7.67238L12.3619 7.80314L11.7486 11.1732C11.6398 11.7717 11.3319 12.3159 10.8747 12.7172C10.4175 13.1186 9.83809 13.3535 9.2305 13.3839L9.09638 13.3866H2.02202C1.50626 13.3866 1.00999 13.1896 0.634737 12.8357C0.259487 12.4819 0.0336278 11.9981 0.00337011 11.4832L3.14117e-09 11.3646V7.32055C-2.87273e-05 6.80479 0.197029 6.30852 0.550853 5.93327C0.904678 5.55802 1.38852 5.33216 1.90339 5.3019L2.02202 5.29853H2.92518L4.59739 1.39739ZM2.69602 6.64654H2.02202C1.84326 6.64654 1.67182 6.71756 1.54542 6.84396C1.41902 6.97036 1.34801 7.14179 1.34801 7.32055V11.3646C1.34801 11.5433 1.41902 11.7148 1.54542 11.8412C1.67182 11.9676 1.84326 12.0386 2.02202 12.0386H2.69602V6.64654ZM5.8133 1.98243L4.09863 5.984C4.07467 6.03974 4.05834 6.09846 4.0501 6.15856L4.04403 6.24888V12.0386H9.09638C9.39357 12.0386 9.68245 11.9404 9.91807 11.7593C10.1537 11.5782 10.3228 11.3242 10.3992 11.037L10.4228 10.9319L11.0362 7.56184C11.0701 7.37581 11.0644 7.18474 11.0196 7.00102C10.9749 6.81731 10.8919 6.64507 10.7763 6.4955C10.6606 6.34593 10.5147 6.22237 10.3481 6.13286C10.1816 6.04334 9.99805 5.98987 9.80947 5.97591L9.70905 5.97254H8.08806C7.74798 5.97265 7.42042 5.8442 7.17105 5.61296C6.92168 5.38172 6.76893 5.06476 6.74342 4.72563L6.74005 4.62453V2.93952C6.74005 2.56679 6.44753 2.18733 5.92788 2.01613L5.8133 1.98243Z"
        fill="#009C89" fill-opacity="0.5" />
</svg>
